<?xml version="1.0" standalone="no"?><!-- Generator: Gravit.io --><svg xmlns="http://www.w3.org/2000/svg" xmlns:xlink="http://www.w3.org/1999/xlink" style="isolation:isolate" viewBox="0 0 2048 2048" width="2048" height="2048"><defs><clipPath id="_clipPath_NLJSlAGZmdL5to9OEsGy4dnYon6x9Lyb"><rect width="2048" height="2048"/></clipPath></defs><g clip-path="url(#_clipPath_NLJSlAGZmdL5to9OEsGy4dnYon6x9Lyb)"><linearGradient id="_lgradient_2" x1="0" y1="1" x2="1.0222222222222221" y2="-0.022222222222222587" gradientTransform="matrix(2,0,0,2,-1,-1)" gradientUnits="userSpaceOnUse"><stop offset="1.7391304347826086%" stop-opacity="1" style="stop-color:rgb(99,66,243)"/><stop offset="97.82608695652173%" stop-opacity="1" style="stop-color:rgb(49,107,246)"/></linearGradient><circle vector-effect="non-scaling-stroke" cx="0" cy="0" r="1" transform="matrix(1024,0,0,1024,1024,1024)" fill="url(#_lgradient_2)"/><circle vector-effect="non-scaling-stroke" cx="0" cy="0" r="1" transform="matrix(183.374,0,0,183.374,1752.374,338.626)" fill="rgb(99,66,243)"/><path d=" M 650.946 1037.874 L 650.946 1037.874 L 650.946 1037.874 Q 650.946 1139.34 595.869 1193.016 L 595.869 1193.016 L 595.869 1193.016 Q 540.791 1246.692 437.364 1246.692 L 437.364 1246.692 L 323.845 1246.692 L 323.845 836.905 L 449.416 836.905 L 449.416 836.905 Q 544.996 836.905 597.971 889.88 L 597.971 889.88 L 597.971 889.88 Q 650.946 942.855 650.946 1037.874 Z  M 600.494 1039.556 L 600.494 1039.556 L 600.494 1039.556 Q 600.494 959.393 560.272 918.75 L 560.272 918.75 L 560.272 918.75 Q 520.05 878.108 440.727 878.108 L 440.727 878.108 L 371.495 878.108 L 371.495 1205.489 L 429.515 1205.489 L 429.515 1205.489 Q 514.724 1205.489 557.609 1163.586 L 557.609 1163.586 L 557.609 1163.586 Q 600.494 1121.682 600.494 1039.556 Z  M 875.461 933.886 L 875.461 933.886 L 875.461 933.886 Q 895.922 933.886 912.179 937.249 L 912.179 937.249 L 905.732 980.415 L 905.732 980.415 Q 886.672 976.21 872.097 976.21 L 872.097 976.21 L 872.097 976.21 Q 834.818 976.21 808.331 1006.482 L 808.331 1006.482 L 808.331 1006.482 Q 781.843 1036.753 781.843 1081.88 L 781.843 1081.88 L 781.843 1246.692 L 735.314 1246.692 L 735.314 939.492 L 773.714 939.492 L 779.04 996.391 L 781.282 996.391 L 781.282 996.391 Q 798.38 966.4 822.485 950.143 L 822.485 950.143 L 822.485 950.143 Q 846.59 933.886 875.461 933.886 Z  M 1016.167 939.492 L 1016.167 1246.692 L 969.639 1246.692 L 969.639 939.492 L 1016.167 939.492 L 1016.167 939.492 Z  M 965.715 856.245 L 965.715 856.245 L 965.715 856.245 Q 965.715 840.268 973.563 832.841 L 973.563 832.841 L 973.563 832.841 Q 981.411 825.413 993.183 825.413 L 993.183 825.413 L 993.183 825.413 Q 1004.395 825.413 1012.524 832.981 L 1012.524 832.981 L 1012.524 832.981 Q 1020.652 840.549 1020.652 856.245 L 1020.652 856.245 L 1020.652 856.245 Q 1020.652 871.941 1012.524 879.649 L 1012.524 879.649 L 1012.524 879.649 Q 1004.395 887.357 993.183 887.357 L 993.183 887.357 L 993.183 887.357 Q 981.411 887.357 973.563 879.649 L 973.563 879.649 L 973.563 879.649 Q 965.715 871.941 965.715 856.245 Z  M 1379.987 1092.812 L 1379.987 1092.812 L 1379.987 1092.812 Q 1379.987 1167.93 1342.147 1210.114 L 1342.147 1210.114 L 1342.147 1210.114 Q 1304.308 1252.298 1237.598 1252.298 L 1237.598 1252.298 L 1237.598 1252.298 Q 1196.395 1252.298 1164.442 1232.958 L 1164.442 1232.958 L 1164.442 1232.958 Q 1132.489 1213.618 1115.111 1177.46 L 1115.111 1177.46 L 1115.111 1177.46 Q 1097.732 1141.302 1097.732 1092.812 L 1097.732 1092.812 L 1097.732 1092.812 Q 1097.732 1017.693 1135.292 975.79 L 1135.292 975.79 L 1135.292 975.79 Q 1172.851 933.886 1239.56 933.886 L 1239.56 933.886 L 1239.56 933.886 Q 1304.028 933.886 1342.007 976.771 L 1342.007 976.771 L 1342.007 976.771 Q 1379.987 1019.655 1379.987 1092.812 Z  M 1145.943 1092.812 L 1145.943 1092.812 L 1145.943 1092.812 Q 1145.943 1151.673 1169.487 1182.505 L 1169.487 1182.505 L 1169.487 1182.505 Q 1193.032 1213.338 1238.72 1213.338 L 1238.72 1213.338 L 1238.72 1213.338 Q 1284.407 1213.338 1308.092 1182.646 L 1308.092 1182.646 L 1308.092 1182.646 Q 1331.777 1151.953 1331.777 1092.812 L 1331.777 1092.812 L 1331.777 1092.812 Q 1331.777 1034.231 1308.092 1003.819 L 1308.092 1003.819 L 1308.092 1003.819 Q 1284.407 973.407 1238.159 973.407 L 1238.159 973.407 L 1238.159 973.407 Q 1192.471 973.407 1169.207 1003.399 L 1169.207 1003.399 L 1169.207 1003.399 Q 1145.943 1033.39 1145.943 1092.812 Z  M 1718.3 1246.692 L 1671.771 1246.692 L 1671.771 1047.965 L 1671.771 1047.965 Q 1671.771 1010.406 1654.674 991.907 L 1654.674 991.907 L 1654.674 991.907 Q 1637.576 973.407 1601.138 973.407 L 1601.138 973.407 L 1601.138 973.407 Q 1552.927 973.407 1530.504 999.474 L 1530.504 999.474 L 1530.504 999.474 Q 1508.081 1025.542 1508.081 1085.524 L 1508.081 1085.524 L 1508.081 1246.692 L 1461.552 1246.692 L 1461.552 939.492 L 1499.392 939.492 L 1506.959 981.536 L 1509.202 981.536 L 1509.202 981.536 Q 1523.497 958.832 1549.284 946.359 L 1549.284 946.359 L 1549.284 946.359 Q 1575.071 933.886 1606.744 933.886 L 1606.744 933.886 L 1606.744 933.886 Q 1662.241 933.886 1690.271 960.654 L 1690.271 960.654 L 1690.271 960.654 Q 1718.3 987.422 1718.3 1046.283 L 1718.3 1046.283 L 1718.3 1246.692 L 1718.3 1246.692 Z " fill-rule="evenodd" fill="rgb(255,255,255)"/></g></svg>